# xmcd CD database file
#
# Track frame offsets:
#	150
#	20563
#	42385
#	62784
#
# Disc length: 1126 seconds
#
# Revision: 9
# Processed by: cddbd v1.5.1PL0 Copyright (c) Steve Scherf et al.
# Submitted via: CDex 1.51
#
DISCID=31046404
DTITLE=榊原ゆい - 此の花咲ク頃
DYEAR=2005
DGENRE=Game
TTITLE0=此の花咲ク頃
TTITLE1=ちる　はな　さくら
TTITLE2=此の花咲ク頃 (カラオケ)
TTITLE3=ちる　はな　さくら (カラオケ)
EXTD=YEAR: 2005
EXTT0=
EXTT1=
EXTT2=
EXTT3=
PLAYORDER=
